<svg width="71" height="90" viewBox="0 0 71 90" fill="none" xmlns="http://www.w3.org/2000/svg">
<path id="E" d="M70.1652 17.698L70.0186 17.2625C68.9542 14.0997 67.5702 11.635 65.8972 9.93151C65.4739 9.47969 65.0695 9.00954 64.6842 8.52108C63.9027 7.52381 63.1395 6.77891 62.2094 6.10728L62.1219 6.04622C61.6253 5.70226 61.1103 5.34609 60.632 4.93701C57.223 1.98997 52.8839 0.496094 47.7347 0.496094C40.9207 0.496094 33.0178 3.1928 26.5925 7.70495C26.1671 8.01431 25.7092 8.33995 25.2146 8.64727C24.4656 9.08892 23.8551 9.5265 23.2954 10.0211C22.7174 10.5441 22.0763 11.0896 21.2764 11.7327C20.6211 12.2578 20.1265 12.6954 19.6706 13.1452L19.1862 13.6357L19.1781 13.6418C17.9244 14.639 16.6605 15.7483 15.9278 17.0875L15.7242 17.5535H15.2745L15.0058 17.8547L14.8918 18.0053C14.3932 18.6587 13.8762 19.3344 13.3064 19.9592C12.3071 21.0257 11.497 22.1756 10.5893 23.5779C10.2922 24.0378 10.0072 24.4571 9.71822 24.8601C8.955 25.9225 8.30984 26.9625 7.74811 28.0351L7.45298 28.611C6.2013 31.0411 4.61179 34.2812 3.42728 37.8083C3.32144 38.1279 3.17897 38.5471 3.01411 38.9684C0.590132 45.1149 -0.162913 53.1012 1.05213 59.8134L1.13558 60.2551C1.19053 60.538 1.24343 60.8209 1.29635 61.1038C1.58943 62.6689 1.89269 64.2869 2.45646 65.7706C2.65863 66.2645 2.82755 66.7401 2.96323 67.1973C3.35807 68.5589 3.80582 69.8187 4.33499 71.044L4.58532 71.6118C5.10024 72.8451 5.57038 73.7692 6.1138 74.6036L6.40077 75.0432C7.22505 76.3702 7.92517 77.4448 8.60698 78.4258L8.87766 78.8145L8.95703 78.9305C9.3417 79.4964 9.67753 79.9868 10.2454 80.3389L10.7053 80.5018V80.9882C11.0839 81.5173 11.4787 81.9407 12.014 82.3945L12.6714 82.9339C14.4685 84.4807 16.4753 86.0621 18.9644 87.1367L19.5404 87.3789L20.1428 87.6475C22.8843 88.8341 25.9575 89.463 29.0348 89.463C31.5931 89.463 33.9947 89.0335 36.1724 88.1909C36.4777 88.0688 36.785 87.9487 37.1005 87.8307L37.4729 87.6943C37.7538 87.5865 38.0326 87.4806 38.3176 87.3748C39.5428 86.9352 40.8107 86.4813 41.9647 85.7792C42.5305 85.421 43.0108 85.1259 43.5156 84.8491L43.8026 84.6964C45.0176 84.0512 46.2713 83.3857 47.3704 82.5574L47.6003 81.8674H48.0949C48.8825 81.3586 49.5643 80.803 50.2339 80.1232C50.6227 79.7243 51.044 79.2989 51.5121 78.8858C52.4808 78.0635 53.3947 77.2861 53.93 76.1199L54.1131 75.5581H54.4632V75.1511H54.9822C55.5643 74.4693 56.069 73.6043 56.5615 72.4483L56.763 71.8947H57.1538L57.3573 71.0806H57.8031C58.1999 70.3703 58.6456 69.6274 59.1158 68.8459C60.8173 66.0128 62.7426 62.8073 63.001 59.8175C61.7127 59.3067 60.5608 58.9505 59.2257 58.8732C59.1117 58.9892 59.0974 59.0258 58.9916 59.2904C57.453 63.424 55.2244 67.4334 52.7129 70.586C52.3832 70.991 52.0759 71.392 51.7991 71.7828C51.6607 72.2264 51.5284 72.6192 51.3981 72.9815L51.3655 73.0731L50.871 73.24L50.4863 73.3072C49.7699 73.9625 49.2387 74.6565 48.8683 75.4258L48.7156 75.9652H48.561C48.0657 75.9652 47.3568 76.4089 46.4341 77.2962C45.3025 78.3912 44.293 79.1809 43.1614 79.8545C42.8582 80.0337 42.5366 80.225 42.2273 80.4244C41.3155 81.0187 40.6011 81.4522 39.9091 81.8369C37.1615 83.2453 33.8827 84.0533 30.9113 84.0533C29.4744 84.0533 28.1291 83.8681 26.9039 83.4977L26.3096 83.2799C25.0376 82.8321 23.7207 82.3701 22.6746 81.1775L22.3551 80.7786C21.7486 80.0703 21.2886 79.4129 20.906 78.7087L20.8999 78.6965L20.8958 78.6843C19.0214 73.8872 19.5078 67.6085 22.3409 60.0271C22.984 58.3298 23.4846 56.5774 23.9812 54.7843L24.1929 53.9987L24.3964 53.2681C24.5613 52.6209 24.5654 52.6107 24.7628 52.0815L24.7872 52.0123L24.8523 51.9757C25.2614 51.7416 25.292 51.7315 25.7011 51.6989C30.4412 51.3142 34.4506 50.7281 37.9533 49.9099L38.7449 49.7166C39.2497 49.5945 39.7545 49.4723 40.2551 49.3482C41.1099 49.1284 41.8792 48.931 42.6547 48.7437L43.3772 48.5707L44.8894 48.2023C46.7679 47.7566 48.504 47.2051 50.1892 46.5212V46.0613L50.3785 46.047C51.4531 45.9717 52.3547 45.7417 53.4883 45.2553L54.0378 45.009C54.6036 44.7607 55.1653 44.5104 55.725 44.256C59.763 42.3836 66.9332 38.1645 69.5871 30.9597L69.6401 30.801C69.7866 30.3654 69.9372 29.9136 70.1184 29.476C70.851 27.7094 70.9731 25.8777 70.9955 24.164L70.9996 23.5433C71.0199 21.4083 70.7554 19.5501 70.1652 17.698ZM53.6776 15.1173L53.5168 15.734C53.3479 16.4036 53.179 17.0732 53.006 17.7408C52.8879 18.1906 52.7719 18.6403 52.6579 19.0901C52.548 19.5257 52.4381 19.9612 52.3262 20.3947L52.0127 21.622L51.8723 22.1552C51.7014 22.8085 51.4856 23.4415 51.1905 24.1477C50.6715 25.3424 50.3031 26.413 50.0304 27.512C49.1084 31.3077 48.1417 34.039 46.7984 36.6503C44.4681 40.8795 41.5088 43.5172 37.7457 44.7139L37.1737 44.893C34.0028 45.8903 30.4065 47.0178 26.5945 47.2682L26.3421 47.2844L26.3808 47.0341C26.6305 45.4086 27.0545 43.8144 27.6528 42.2513C28.3815 40.448 28.9432 38.6285 29.5009 36.7663C29.7532 35.9196 30.0076 35.0729 30.2682 34.2283L30.3923 33.8253C30.5897 33.1924 30.8034 32.5146 31.0517 31.843C31.4852 30.6748 31.8801 29.4781 32.2546 28.1816C32.4255 27.5934 32.5945 26.993 32.7674 26.3865C34.4954 20.293 36.4533 13.3853 40.6968 8.59028C43.0251 6.15205 45.2923 5.06523 48.0521 5.06523C48.622 5.06523 49.2245 5.11407 49.8472 5.2077H49.8676L49.8879 5.21787C51.3961 5.77146 52.3445 6.92748 53.0019 7.87184L53.0121 7.88405L53.0182 7.8983C54.16 10.2042 54.3574 12.3636 53.6776 15.1173Z" fill="white"/>
</svg>
