<svg width="118" height="123" viewBox="0 0 118 123" fill="none" xmlns="http://www.w3.org/2000/svg">
<path id="F" d="M1.60388 122.793C1.28638 122.773 1.25382 122.771 0.820312 122.627C0.899687 121.847 1.05844 121.112 1.31691 120.327L1.47363 119.84C1.88271 119.321 2.41188 119.24 3.0774 119.136L3.34402 119.093L3.70426 119.032C3.98716 118.987 4.2721 118.945 4.55703 118.902C8.07801 118.385 11.6397 117.506 13.852 114.604C15.3011 112.526 16.0969 110.356 16.911 107.525C17.1715 106.629 17.4605 105.726 17.7414 104.853L17.953 104.185C18.4781 102.532 19.0562 100.817 19.5202 99.4389C19.9456 98.1669 20.373 96.8033 20.8675 95.1486C21.3255 93.612 21.7936 92.2463 22.2942 90.9763C22.8092 89.6351 23.2101 88.2369 23.5968 86.8855L23.8024 86.1731C24.1158 85.1026 24.5025 83.8387 24.997 82.585C25.6036 81.0443 26.0737 79.4405 26.5296 77.8897L26.5418 77.849C27.1646 75.731 27.6714 74.1767 28.0621 73.1862C28.6605 71.6679 29.1266 70.0845 29.5764 68.554C30.2521 66.2582 30.8097 64.5283 31.3877 62.9306C31.9983 61.223 32.5356 59.4646 33.0566 57.7651L33.1157 57.5697C33.5695 56.084 34.062 54.5555 34.579 53.0271C34.9677 51.8649 35.3646 50.6601 35.7574 49.4471L36.252 47.9247C37.3185 44.6317 38.1488 42.11 38.9426 39.7471C39.6895 37.5225 40.235 35.7946 40.7112 34.1481C40.9493 33.3279 41.22 32.5219 41.5416 31.6854C41.8082 30.967 42.0382 30.2282 42.2621 29.5138L42.3781 29.1454C43.1067 26.8497 43.8374 24.6068 44.393 22.9094C45.2926 20.1632 46.1772 17.4122 47.0469 14.6565L47.2098 14.1395C47.8081 12.1715 48.0829 10.5473 48.0747 9.02293L48.0788 8.37775C47.9852 7.33367 47.7288 6.78212 47.0225 6.09217L47.0083 6.07792L46.992 6.06774C45.1684 4.87102 42.6284 4.5698 40.3856 4.30318C39.9317 4.25027 39.5002 4.19735 39.083 4.14036C39.1827 2.82152 39.4025 2.24147 40.0172 0.855469H117.609C117.489 2.04202 117.353 3.13291 117.035 4.29708L116.917 4.74483C116.836 5.05215 116.752 5.35948 116.671 5.6668C116.545 6.13491 116.42 6.60301 116.298 7.07112L115.946 8.392C115.761 9.0677 115.56 9.65182 115.309 10.2258C114.937 11.1091 114.719 11.97 114.53 12.778L114.275 13.8261C114.145 14.3675 114.015 14.9109 113.885 15.4523C113.305 17.8681 112.781 19.7161 112.185 21.442C111.686 22.9013 111.298 24.3972 110.954 25.7975C110.29 28.4881 109.608 30.9853 108.866 33.4276C108.369 35.0721 107.885 36.8102 107.345 38.9004C107.022 40.1338 106.623 41.3712 106.092 42.7836H102.768C102.744 41.532 102.742 40.1989 102.862 38.8597C103.493 31.8544 104.358 22.2602 101.742 14.63L101.61 14.2291C100.273 10.2034 98.319 7.70612 95.2722 6.13084C93.0782 5.15595 90.6461 5.07454 88.3422 5.07454H86.6957C86.2459 5.07454 85.7961 5.07454 85.3442 5.07454C85.0837 5.07454 84.8253 5.07454 84.5668 5.07454C84.115 5.07454 83.6611 5.07454 83.2093 5.07251H80.3782C79.0004 5.07861 77.7548 5.11932 76.4563 5.54468L76.3871 5.56707L76.3484 5.62813C76.094 6.02093 76.0859 6.03721 75.921 6.48293L75.6605 7.08333C75.0276 8.63419 74.4719 10.1932 73.9611 11.8519C73.5296 13.2501 73.0758 14.6138 72.6891 15.7616C72.1395 17.3919 71.59 19.1157 71.0079 21.0329C70.6151 22.3233 70.1531 23.8233 69.626 25.2703C69.0867 26.754 68.6247 28.2316 68.122 29.872C67.4666 32.0111 66.7502 34.2295 65.9972 36.4662C65.5128 37.9092 65.008 39.4682 64.4097 41.3692C64.0779 42.4214 63.7136 43.4879 63.3289 44.5401C62.9687 45.5312 62.6125 46.6201 62.2421 47.8697L62.122 48.2727C61.9246 48.9423 61.7292 49.6099 61.5359 50.2795C61.1044 51.7571 60.6241 53.0963 60.0705 54.3744C59.8242 54.9667 59.6268 55.5793 59.4314 56.3649L59.3663 56.6254L59.635 56.6193C63.565 56.5155 66.8336 56.2835 70.1124 54.352L70.5358 54.1037C70.9795 53.8412 71.4191 53.5746 71.8587 53.3059L72.2698 53.0556C73.0798 52.5447 73.7454 51.9932 74.4312 51.2625L74.9421 50.774C76.6598 49.1112 78.1802 47.2266 79.8715 44.6683L80.0791 44.4078H80.5411L80.7324 43.7443C81.0295 42.9343 81.4467 42.2362 81.8456 41.591L82.0797 41.2063C82.4338 40.6243 82.7351 40.1378 83.0485 39.6555C83.7588 38.5483 84.3388 37.4045 84.8578 36.3319C85.4521 35.1053 85.9257 34.2309 86.2784 33.7085C86.7934 32.9269 87.0885 32.1149 87.4039 31.256L87.4589 31.1074C87.9433 29.8334 87.9575 29.7967 88.3869 29.5464C88.7716 29.5179 89.1339 29.5036 89.4921 29.5036C89.6549 29.5036 89.8177 29.5057 89.9846 29.5118L90.4507 29.5199C90.7784 29.526 91.106 29.5362 91.4337 29.5443C91.6169 30.1427 91.509 30.5599 91.2973 31.2682L91.0898 31.9683L90.8659 32.6949L90.6583 33.3971C90.2696 34.6895 89.8462 35.9249 89.3659 37.1725C88.6393 39.0673 88.0613 41.0517 87.5545 42.804C87.4263 43.2416 87.2981 43.6792 87.1678 44.1167L86.9419 44.8922C86.7201 45.5292 86.425 46.036 86.1156 46.5407L86.1054 46.559L86.0993 46.5794C85.906 47.1208 85.9019 47.1309 85.7574 47.7029L85.5844 48.3378L85.4053 49.0115C84.7316 51.4884 84.1007 53.5013 83.425 55.3493C82.9304 56.7007 82.4542 58.1417 81.8843 60.0202C81.3063 61.9211 80.6957 63.8322 80.0668 65.7006C79.3016 67.98 78.4814 70.4651 77.5594 73.2961L77.3762 73.8599C76.5011 76.5505 75.63 79.2411 74.7609 81.9337C74.012 84.2539 73.3241 86.338 72.6626 88.3041L72.3024 89.3868H69.1884C69.1742 88.2206 69.2576 87.0157 69.4571 85.5137L69.7115 83.4825C70.4591 78.161 70.4883 72.8613 69.799 67.5832V67.5669L69.6769 67.1558C68.9157 64.6585 67.5826 63.0853 65.0752 61.7257C63.561 61.0846 62.1078 60.9788 60.5691 60.8669L59.8833 60.8139C59.3276 60.7712 58.772 60.7305 58.2164 60.6898L58.0536 60.6776L57.8948 61.2149C57.6587 62.0107 57.4043 62.8553 57.1255 63.6796C56.8304 64.5527 56.5577 65.4258 56.2585 66.3926L55.9674 67.3308C55.8168 67.8152 55.6662 68.3016 55.5177 68.786C55.3711 69.2602 55.2246 69.7344 55.076 70.2066L54.9417 70.6442C54.7117 71.3748 54.4064 72.1055 53.9485 73.0112L53.9424 73.0254L53.9383 73.0397C53.8121 73.4203 53.6961 73.809 53.5923 74.1977L53.4152 74.847L53.2361 75.5186C52.7558 77.3015 52.2531 78.9541 51.7016 80.5681L51.3963 81.5002C51.2111 82.0599 50.9994 82.6562 50.7104 83.4317C50.2667 84.6487 49.8943 85.8679 49.589 86.8997C49.0313 88.7579 48.4207 90.667 47.7715 92.572C47.5924 93.1011 47.4153 93.6323 47.2383 94.1635L47.1711 94.365C47.0286 94.7904 46.8862 95.2158 46.7437 95.6391C46.1759 97.3324 45.6223 99.0298 45.0992 100.684C44.3767 102.968 43.6053 105.313 42.7404 107.851C41.7132 110.753 41.4582 113.665 41.9751 116.586L41.9832 116.629L42.0077 116.665C42.95 118.025 44.8631 118.379 46.3997 118.664L46.7172 118.723L47.3929 118.841C47.8427 118.924 48.2946 119.008 48.7464 119.091L49.3447 119.197C49.7294 119.279 49.7823 119.289 50.0347 119.413C49.9899 119.633 49.9451 119.852 49.9004 120.072L49.8067 120.53C49.6948 120.947 49.5544 121.375 49.3529 121.908L49.1066 122.557C43.0456 122.588 36.9826 122.616 30.9196 122.645C30.9196 122.645 23.6721 122.679 21.3478 122.692C18.9625 122.704 16.5793 122.714 14.1939 122.726C12.8547 122.732 11.5135 122.738 10.1743 122.747C8.9145 122.753 7.65468 122.759 6.39486 122.765C5.93083 122.765 5.46679 122.769 5.00479 122.773C4.37386 122.777 3.74293 122.779 3.112 122.781L2.55028 122.785H1.60388V122.793Z" fill="white"/>
</svg>
