<svg width="40" height="40" viewBox="0 0 40 40" fill="none" xmlns="http://www.w3.org/2000/svg">
<g id="house-outline_25794" clip-path="url(#clip0_46_10973)">
<g id="Group">
<path id="Vector" d="M39.0999 18.2141L20.9739 3.39985C20.3851 2.9188 19.5396 2.9188 18.9512 3.39985L14.3085 7.19504V5.22523C14.3085 4.79977 13.9641 4.45608 13.5386 4.45608H9.0709C8.64544 4.45608 8.30108 4.80011 8.30108 5.22523V12.1047L0.825492 18.2141C0.496066 18.4827 0.448107 18.9679 0.716544 19.297C0.868958 19.4827 1.09056 19.5803 1.31407 19.5803C1.48524 19.5803 1.65697 19.5229 1.80018 19.4068L5.68073 16.2344V35.5542C5.68073 35.9793 6.02509 36.3237 6.44965 36.3237H33.476C33.9007 36.3237 34.2458 35.9794 34.2458 35.5542V16.2349L38.1264 19.4073C38.2694 19.5237 38.4417 19.5808 38.6123 19.5808C38.8351 19.5808 39.0566 19.4831 39.2091 19.2973C39.4773 18.9679 39.4294 18.4833 39.0999 18.2141ZM9.84038 5.99437H12.7686V8.45276L9.84038 10.8462V5.99437ZM32.7068 34.7843H7.21902V14.9768L19.3039 5.09977C19.6873 4.78629 20.2379 4.78629 20.6215 5.09977L32.7068 14.9768V34.7843Z" fill="white"/>
</g>
</g>
<defs>
<clipPath id="clip0_46_10973">
<rect width="38.8396" height="38.8396" fill="white" transform="translate(0.541016 0.265625)"/>
</clipPath>
</defs>
</svg>
