<svg width="78" height="88" viewBox="0 0 78 88" fill="none" xmlns="http://www.w3.org/2000/svg">
<path id="R" d="M21.8269 87.5875H21.1166C20.3391 87.5875 19.5596 87.5875 18.7822 87.5835H17.1682C15.8941 87.5835 14.6201 87.5794 13.346 87.5773C11.8949 87.5753 10.4458 87.5733 8.99465 87.5733C6.08627 87.5712 3.1779 87.5672 0.269531 87.5631C0.454739 86.0204 0.464933 85.9878 0.694916 85.2816L0.84756 84.8053L1.00833 84.3189L1.17523 83.804C1.33398 83.3135 1.49477 82.825 1.65759 82.3345L1.89164 81.6263C2.06871 81.091 2.24983 80.5537 2.43097 80.0184L3.07819 78.0564C3.21862 77.6514 3.37737 77.22 3.56258 76.7437C4.00626 75.5673 4.35022 74.3421 4.68196 73.1556C4.75727 72.8869 4.83257 72.6203 4.90787 72.3516C5.2905 71.0341 5.62497 70.0755 5.91126 69.4758C6.49741 68.2303 6.85969 66.8727 7.21179 65.562C7.29931 65.2364 7.38681 64.9108 7.47636 64.5892C7.97296 62.8165 8.4492 61.3389 9.14729 59.8898C9.54823 58.9841 9.79452 58.0316 10.0347 57.1096L10.1079 56.8268C10.228 56.3831 10.3501 55.9353 10.4722 55.4896L10.6493 54.8403C10.8691 54.0568 11.1174 53.2447 11.3881 52.4245L11.6222 51.7183C11.7497 51.3994 11.9397 51.1145 12.192 50.8635L12.2266 50.8289L12.2409 50.7821C12.3589 50.4218 12.4729 50.027 12.5909 49.5752L12.7863 48.8343L12.8901 48.4395C13.403 46.4795 13.8833 44.7129 14.5651 42.9565C15.2063 41.3019 15.7252 39.6615 16.1486 38.2734C16.8507 35.9695 17.6404 33.5333 18.7028 30.3766C19.3134 28.5632 19.8609 26.8719 20.3758 25.2051C20.7442 24.0145 21.0678 23.0457 21.3934 22.1583C22.0386 20.3917 22.6288 18.6027 23.1681 16.9318L23.4103 16.1889C23.9694 14.459 24.337 12.6951 24.5134 10.8973L24.5175 10.2195C24.4646 9.60896 24.3649 9.11439 24.0331 8.4916L24.0026 8.43258L23.9436 8.40409C23.4002 8.13747 22.9463 8.01943 22.4721 8.01943C22.1648 8.01943 21.8432 8.06827 21.4585 8.17411C20.5386 8.52417 19.9769 9.02077 19.3663 9.71072C19.1465 9.9441 18.8826 10.1707 18.5746 10.3905L18.5583 10.4027C17.8277 11.0458 17.3901 11.7989 16.926 12.5947L16.8426 12.7371L16.2951 13.655L16.0142 14.1333C15.8331 14.4325 15.6621 14.7052 15.4871 14.9657C14.6404 16.2317 14.1174 17.6523 13.6126 19.024C13.5475 19.1991 13.4824 19.3761 13.4173 19.5512L13.1608 20.2167L12.939 20.813C12.6703 21.33 12.4729 21.5477 12.015 21.8021C11.5184 21.7024 11.1195 21.5864 10.6595 21.4073L10.2565 21.2689C9.91052 21.1407 9.8983 21.1366 9.35693 20.8517C9.17782 20.4385 9.19208 20.2411 9.33862 19.7526L9.57879 19.2072L9.84743 18.5905L10.1466 17.927L10.4132 17.3164C10.9485 16.1055 11.4268 15.2344 12.0129 14.3999L12.0211 14.3877L12.0272 14.3755C12.2246 13.9949 12.418 13.6021 12.6032 13.2113C13.2137 11.9658 14.0604 10.3661 15.1981 8.99024H15.654L15.8555 8.42241C16.3032 7.39461 16.9606 6.5398 18.0495 5.5812L19.3093 4.46181L19.6797 4.09547C22.0691 1.78139 25.8303 0.784114 28.5555 0.621294C28.7468 0.615188 28.9462 0.613154 29.1436 0.613154C31.6063 0.613154 35.0927 1.10161 37.7283 3.43197L38.1659 3.8492L38.6177 4.26032C39.4908 5.08663 40.1564 5.94958 40.773 7.05675L41.0743 7.55539C43.2825 11.345 43.6326 15.676 43.8015 19.7872L44.1923 19.8585L44.3653 19.4514C44.6278 18.8368 44.8924 18.2221 45.157 17.6075L45.4317 16.9664C45.8469 16.0057 46.3598 14.8762 47.0274 13.7792L47.4202 13.132L47.815 12.4949C48.3523 11.6259 48.8367 10.826 49.2926 10.0486C50.2899 8.38577 51.3441 7.00384 52.431 5.9394H52.893L53.0782 5.47333C54.4377 3.13483 57.9343 1.8628 59.3752 1.42318C59.9431 1.25629 59.9532 1.25222 60.4865 1.02224C61.3474 0.688457 62.3671 0.519531 63.5088 0.519531C65.2123 0.519531 67.1417 0.912335 68.8066 1.59821C72.527 3.32004 74.9123 6.1124 76.7725 10.9339C78.2644 15.4481 77.8797 20.4629 75.6857 25.0443C74.7169 26.8781 73.7563 28.0809 72.3723 29.184L71.947 29.5585C70.0644 31.1582 67.5508 31.9723 64.4837 31.9723C64.1886 31.9723 63.8853 31.9641 63.5801 31.9499C60.4824 31.5734 58.2274 30.3705 56.2857 28.0565C54.8855 25.9724 54.4235 23.3347 54.8773 19.9928C55.4594 17.6034 56.6785 15.5173 58.5998 13.6143L59.1005 13.0892C59.4444 12.7616 59.7599 12.4766 60.055 12.2263C61.209 11.2351 62.1594 10.1666 63.1384 8.76636L63.4396 8.38374H63.9138L63.9484 8.22092C64.1499 7.244 64.1499 7.22568 64.0136 6.2569L64.0054 6.20399L63.9729 6.16124C63.6146 5.69924 63.3419 5.55881 62.8067 5.34714L62.7802 5.33697H62.7517C62.3874 5.29626 62.0333 5.27795 61.6995 5.27795C59.4098 5.27795 57.8264 6.147 56.015 7.54929C53.8027 9.35659 52.3597 11.803 50.9635 14.17L50.6949 14.6238C49.0443 17.4467 47.5952 20.3856 46.2642 23.6094C45.7716 24.8001 45.2465 25.9622 44.7967 26.9452C44.4121 27.798 44.0478 28.7139 43.6203 29.9126C43.2967 30.8142 42.9548 31.7281 42.6231 32.6093L42.2608 33.5781C41.9331 34.4533 41.5749 35.3956 41.1842 36.346C40.655 37.6588 40.2011 39.0204 39.7595 40.3372L39.5092 41.0841C38.8803 42.9545 38.3124 44.4667 37.7242 45.8425C37.4271 46.565 37.2215 47.2733 37.0424 47.9307C36.5825 49.5609 36.0553 51.1667 35.6463 52.3838L35.4142 53.0778L34.7894 54.9319C34.3987 56.0941 34.0079 57.2562 33.6171 58.4203C33.4909 58.7989 33.1897 59.6903 33.1897 59.6903C32.6911 61.174 32.2311 62.6761 31.7813 64.2859C31.5534 65.0654 31.2684 65.8205 30.9937 66.5186C30.7902 67.0885 30.5968 67.6706 30.4299 68.1692L30.2752 68.6353C29.7542 70.2126 29.2779 71.7899 28.8404 73.2573C28.5107 74.3584 28.2115 75.2498 27.898 76.0619C27.605 76.8414 27.3424 77.6392 27.086 78.4126L26.7258 79.4954C26.2821 80.8346 25.8995 82.0272 25.5555 83.1446C24.3547 87.0319 24.2936 87.2273 23.968 87.559C23.7299 87.5733 23.4673 87.5794 23.1539 87.5794H21.831L21.8269 87.5875Z" fill="white"/>
</svg>
