<svg width="64" height="118" viewBox="0 0 64 118" fill="none" xmlns="http://www.w3.org/2000/svg">
<path id="T" d="M17.4503 117.375C16.0155 117.375 14.5542 117.247 13.1112 116.993C10.5732 116.453 7.0543 115.116 5.51565 113.126C5.09436 112.603 4.69137 112.218 4.16424 111.838C3.20971 111.05 2.65001 109.845 2.11067 108.681C2.02723 108.502 1.94582 108.325 1.86238 108.152L1.59982 107.606C-0.673552 102.437 -0.372328 95.5962 2.49737 87.2822C2.91664 86.0591 3.29315 84.8033 3.65949 83.5883L3.71852 83.3888C4.11743 82.0679 4.555 80.6677 5.12284 79.3264C5.80058 77.7206 6.27276 76.0293 6.72865 74.393L6.74494 74.334C7.11128 73.0457 7.50816 71.8896 7.95795 70.8028C8.63773 69.1583 9.15061 67.4467 9.62075 65.8327C10.0787 64.2615 10.6465 62.4033 11.3853 60.5391C11.7822 59.4889 12.1099 58.4061 12.4274 57.358L12.4966 57.128C13.2801 54.5473 13.9965 52.4001 14.7557 50.3669C15.1933 49.1905 15.6084 47.9449 16.0643 46.447C16.447 45.1973 16.8723 43.9355 17.2835 42.7164L17.5806 41.8351C17.7292 41.3914 17.8757 40.9457 18.0223 40.5C18.6328 38.6357 19.3207 36.806 19.9842 35.0353L20.088 34.7606H8.61941C8.79444 32.8454 8.81276 32.7579 9.15264 32.0741C9.69606 31.8705 9.72657 31.8624 10.4654 31.6894L11.31 31.4818L12.1058 31.2945C13.6994 30.9038 15.1892 30.4092 16.4368 29.9777L16.9558 29.8007C17.9531 29.4506 18.8445 29.07 19.683 28.6324C20.084 28.4289 20.4869 28.2478 20.9673 28.0381C24.3743 26.5402 27.5167 24.625 29.8735 23.1251L30.421 22.777C32.4909 21.4297 34.4325 19.8544 36.4067 18.2242C36.7791 17.9189 37.1516 17.6136 37.524 17.3083L38.0145 16.9074C38.275 16.7161 38.5993 16.556 38.9874 16.427L39.083 16.3945L39.3028 15.733C39.5776 15.4603 39.5918 15.4481 39.9745 15.1347C40.9697 14.29 41.8673 13.4108 42.6142 12.6639L43.0721 12.2059C44.1651 11.1008 45.0341 10.1259 45.8055 9.13272C46.0945 8.76637 46.414 8.38171 46.7803 7.95838C47.4967 7.12799 48.148 6.27319 48.6365 5.61987L48.958 5.19044C49.7538 4.11786 50.5211 2.97201 51.3067 1.68574C51.8949 0.725098 52.6785 0.277344 53.7775 0.277344C54.2375 0.277344 54.7524 0.352648 55.3854 0.511397C55.2694 1.40487 55.0699 2.23118 54.7422 3.1674L54.327 4.37837C54.0828 5.10903 53.863 5.86003 53.6513 6.58458L53.6005 6.75554C53.4397 7.244 53.2463 7.75689 52.998 8.36543C52.5523 9.4665 52.19 10.5859 51.8664 11.632L51.3088 13.4027C50.6514 15.4827 49.9187 17.5749 49.2084 19.6L49.1982 19.6285C48.4146 21.8795 47.6535 24.1793 46.9187 26.4038L46.4303 27.8794C46.2084 28.547 45.954 29.241 45.6508 29.9981L45.5388 30.2769H63.8194C63.9823 30.7226 63.8133 31.1948 63.6342 31.6914C63.5834 31.8319 63.5345 31.9723 63.4918 32.1107L63.3513 32.5808C63.2211 33.0143 63.0847 33.4458 62.9443 33.8752L62.7632 34.4655C62.5922 34.783 62.5861 34.7891 62.3093 34.8827C61.8086 34.9682 61.3019 34.9804 60.8297 34.9804C60.7015 34.9804 60.2008 34.9763 60.2008 34.9763H59.6757C59.1058 34.9763 58.5359 34.9763 57.964 34.9722H56.7755C55.7354 34.9722 54.6934 34.9682 53.6513 34.9661C52.5889 34.9641 51.5265 34.9621 50.4621 34.9621C48.378 34.96 46.2919 34.956 44.2078 34.9519H44.0653L43.1372 37.4512C42.6712 38.711 42.2214 40.0889 41.7594 41.6621C41.3259 43.1092 40.9209 44.4158 40.3673 45.7102C39.7587 47.1471 39.3191 48.6552 38.8937 50.1145L38.8205 50.3628C38.332 52.0358 37.7744 53.8288 37.0152 55.6036C36.6021 56.6253 36.2845 57.6897 35.9752 58.7175C35.9101 58.9332 35.8449 59.149 35.7798 59.3667C35.2934 60.9685 34.7663 62.672 34.1313 64.3267C33.4149 66.2011 32.8246 68.1468 32.2548 70.0274L32.1754 70.2879C31.689 71.8896 31.1537 73.6013 30.5146 75.2722C30.1157 76.3306 29.7555 77.4174 29.4054 78.4696C29.4054 78.4696 29.0187 79.6338 28.8823 80.0388C28.4855 81.2274 28.1334 82.2999 27.8138 83.399C27.6307 84.0197 27.4109 84.6446 27.1381 85.306C26.6436 86.5088 26.2508 87.7605 25.8682 88.9715L25.1049 91.367C24.8098 92.2889 24.4903 93.2659 24.126 94.3547L23.953 94.8757C23.6477 95.7855 23.3241 96.7075 22.9618 97.6946C21.9014 100.609 20.5826 104.234 21.5921 107.413L21.5962 107.427L21.6022 107.439C21.8322 107.924 21.8424 107.94 22.2393 108.514L22.4795 109.236H22.8295V109.58L22.9598 109.631C23.8655 109.979 24.877 110.165 25.8844 110.165C26.552 110.165 27.2053 110.085 27.824 109.928L27.8423 109.924L27.8606 109.916C28.2738 109.723 28.6361 109.491 29.0513 109.204L29.6191 108.864C32.5275 107.02 34.7072 104.694 35.7635 102.306C35.9956 101.881 36.2092 101.623 36.5695 101.242C37.3958 100.308 37.8598 99.1864 38.3096 98.1016C38.3687 97.9612 38.4256 97.8208 38.4847 97.6803C39.3456 95.6736 40.1007 94.0413 40.8578 92.5637C42.028 92.6818 43.2064 92.869 44.454 93.1336C44.5945 93.5345 44.6067 93.736 44.4602 94.1716L44.2057 94.6885L43.6114 95.9219C43.4181 96.3533 43.2288 96.7787 43.0396 97.2041C42.0423 99.4225 40.9066 101.785 39.3537 104.036C39.1197 104.423 38.8937 104.802 38.6719 105.182C38.2933 105.817 37.9107 106.438 37.3978 107.002H36.9338L36.7323 107.598C36.486 108.144 36.2316 108.441 35.7574 108.89L35.3137 109.316L34.9047 109.705L34.3897 110.232C33.1564 111.433 31.9067 112.424 30.4576 113.344L30.0893 113.594C26.379 116.059 22.0073 117.359 17.4381 117.359L17.4503 117.375Z" fill="white"/>
</svg>
