<svg width="86" height="90" viewBox="0 0 86 90" fill="none" xmlns="http://www.w3.org/2000/svg">
<path id="U" d="M17.2567 89.3984C16.4344 89.3984 15.6081 89.3475 14.8042 89.2478C12.8035 88.9465 11.1021 88.3726 9.29273 87.3875L8.8063 87.1474C6.66929 86.0097 4.64828 83.9866 3.53704 81.87C3.29077 81.4039 3.01804 80.9765 2.7616 80.5837C2.3057 79.8591 1.96583 79.1 1.63205 78.0539L1.47533 77.5715C0.811837 75.4447 0.43734 73.1998 0.292837 70.5112L0.264365 70.0024C0.0669459 65.0283 1.18837 59.5697 3.59607 53.7774C3.86879 53.0976 4.13337 52.3609 4.42848 51.4552C4.75412 50.46 5.02683 49.6296 5.33008 48.7768L5.5031 48.2884C5.64556 47.9396 5.84095 47.5306 6.08925 47.0611C6.60824 46.0374 6.95421 44.9424 7.29003 43.8841L7.41825 43.4791C7.90467 41.9831 8.50303 40.2227 9.24794 38.5008C9.79949 37.2023 10.2595 35.8509 10.7011 34.5463L10.7255 34.4771C11.3626 32.6006 11.9162 31.1678 12.5166 29.8307C13.0518 28.581 13.4874 27.2744 13.9066 26.0085C14.0247 25.6523 14.1427 25.2961 14.2628 24.944C14.7594 23.4888 15.197 22.3145 15.6427 21.248C16.0864 20.149 16.4792 19.0133 16.8577 17.9163L17.0063 17.4869C17.3014 16.6382 17.625 15.7305 17.9853 14.8472L18.1705 14.3913C18.2865 14.1043 18.4066 13.8173 18.5267 13.5304C18.9561 12.4049 19.353 10.736 18.8177 9.13422L18.8116 9.1159L18.8014 9.09758C18.4798 8.53585 18.1481 8.25906 17.4927 7.99244L17.4541 7.97616H17.4134C16.3978 7.99651 15.4799 8.20614 14.6068 8.6193L14.5294 8.65593L14.3137 9.30111C14.0084 9.59622 13.9921 9.60843 13.5851 9.94221C12.4901 10.8418 11.7574 11.892 10.9942 13.1884L10.2696 14.4157C10.0641 14.7637 9.85242 15.1117 9.64075 15.4577C8.86735 16.7399 8.21404 18.0934 7.58312 19.7175L7.11296 20.8857L6.81582 21.6327C6.71202 21.6388 6.60822 21.6429 6.5085 21.6429C5.50919 21.6429 4.7012 21.3274 3.69376 20.8776C3.62456 19.687 3.96038 18.8139 4.43663 17.723L4.64828 17.2101C5.05736 16.2515 5.5214 15.529 6.29886 14.6335L6.31516 14.6131L6.32736 14.5907C6.57362 14.0982 6.57769 14.09 6.73441 13.5934C7.26968 12.1647 8.06343 10.8499 9.38634 9.20545C9.91958 8.52568 10.4182 7.80723 10.9006 7.11525L10.9962 6.97888C11.385 6.4945 11.8144 6.13222 12.3761 5.70685L12.3863 5.69871L12.8666 5.2184C13.9514 4.13361 14.8876 3.25642 16.2004 2.6784L16.6501 2.43824C18.6996 1.34531 20.8143 0.755091 23.1141 0.635012C23.2566 0.630941 23.4031 0.628906 23.5517 0.628906C26.9424 0.628906 30.0299 1.6791 32.4762 3.66754L32.865 3.95654C36.6139 6.87509 37.7252 12.1077 38.236 15.7895C38.9036 21.3172 37.6906 28.1882 34.9898 34.1698C34.542 35.2058 34.194 36.2926 33.8561 37.3407C33.7808 37.5768 33.7035 37.815 33.6262 38.051C32.9281 40.1819 32.2931 41.9302 31.6296 43.5503C30.9783 45.1459 30.4023 46.7945 29.8447 48.3901L29.0123 50.7612C28.7599 51.443 28.4831 52.1024 28.1432 52.886C28.0272 53.1811 27.9173 53.4701 27.8115 53.7591L27.2782 55.2143C26.916 56.2014 26.5333 57.2801 26.1039 58.5094C25.7233 59.6003 25.304 60.7217 24.8217 61.9347C24.1602 63.6056 23.5761 65.2766 22.9045 67.2732C22.4913 68.4902 22.0171 69.7256 21.4554 71.0486C21.1827 71.7141 20.9282 72.4427 20.6576 73.3484L20.5334 73.7473C19.646 76.6434 19.6623 79.0634 20.5823 80.9521C21.203 81.9656 21.8848 82.2872 23.0062 82.5579C23.3604 82.6088 23.6901 82.6332 24.0096 82.6332C25.5564 82.6332 26.9282 82.1061 28.5971 80.8707C30.7911 79.1651 32.4905 77.3293 33.7971 75.2554C33.9498 75.0275 34.1065 74.7934 34.2652 74.5614L34.6112 74.0383L34.9572 73.5193H35.409L35.5922 72.8762C35.9301 71.9542 36.4165 71.0954 36.8439 70.3362L37.1187 69.8437C37.5664 69.0445 37.9165 68.4801 38.1689 68.1504C38.5148 67.6782 38.7265 67.2365 38.9036 66.8295L39.1274 66.3207L39.3574 65.7915C39.9151 64.5113 40.4565 63.3634 41.0121 62.2827C41.8018 60.7339 42.4083 59.1545 43.0107 57.5386C43.2163 56.9931 43.4218 56.4456 43.6294 55.9002L43.778 55.5094C44.0751 54.736 44.4171 53.987 44.82 53.2198C45.1335 52.5766 45.3451 51.9009 45.5527 51.2476L45.6097 51.0685L46.0839 49.6133C46.5439 48.2192 47.0425 46.8698 47.5982 45.3779C48.284 43.5401 48.8397 41.9832 49.322 40.357C49.4624 39.8868 49.613 39.4187 49.7799 38.9242C49.9692 38.3665 50.1524 37.7987 50.3417 37.1861L50.474 36.7566C50.5594 36.4758 50.647 36.1949 50.7324 35.9161C50.9645 35.161 51.1782 34.5382 51.4 33.9582C51.7745 32.9772 52.094 31.9636 52.4013 30.9826L52.5011 30.6651C52.9651 29.2038 53.4617 27.6509 53.9746 26.1143L54.1211 25.6767C54.3267 25.0641 54.5322 24.4515 54.7398 23.8389C54.9169 23.3138 55.4522 21.7263 55.4522 21.7263C55.9162 20.3301 56.3904 18.7955 56.9013 17.033C57.1984 16.0256 57.5281 15.1138 57.9047 14.2508C58.5336 12.7773 58.9691 11.2285 59.3904 9.73054L59.4616 9.48021C60.1211 7.14781 60.8619 4.67295 62.0382 2.28967H85.698C85.5006 3.8731 85.4884 3.90769 85.2218 4.68312L85.0305 5.25096L84.8229 5.84932L84.3772 7.16206L84.1431 7.8459C83.7584 8.96936 83.3799 10.0928 83.0034 11.2183L82.7754 11.9001C82.0346 14.1226 81.3589 16.3146 80.8541 17.9753C80.4328 19.3532 80.0462 20.4889 79.6371 21.5513C79.4356 22.1211 79.2422 22.6992 79.0611 23.2385L78.9023 23.7127C78.4912 24.9562 78.0801 26.2954 77.6486 27.8097C77.3942 28.6828 77.0889 29.5641 76.7165 30.5043C76.0733 32.1509 75.5666 33.8645 75.0781 35.5233L74.9234 36.0443C74.3047 38.1284 73.745 39.8054 73.1589 41.3217C72.6256 42.7199 72.2064 44.1364 71.7545 45.7117C71.6019 46.2409 71.4493 46.768 71.2946 47.2952L71.0951 47.9892C70.954 48.4057 70.7858 48.8073 70.5904 49.194C70.2118 49.9573 69.9737 50.7327 69.76 51.4633L69.6216 51.9253C69.4425 52.5217 69.2654 53.118 69.0904 53.7143L69.0436 53.871C68.3964 56.0549 67.8428 57.7177 67.2465 59.2604C66.7254 60.622 66.3184 62.0141 65.9785 63.2128C65.5206 64.7963 65.0179 66.4835 64.389 68.1585C63.8293 69.6748 63.3367 71.2419 62.8625 72.7561L62.661 73.3952C62.3083 74.5159 62.0389 75.3368 61.8531 75.8578C61.2588 77.5817 61.0837 79.1102 61.3015 80.6712L61.3056 80.7017L61.3198 80.7302C61.6963 81.5179 61.7167 81.5423 62.4026 82.0308L62.4433 82.0592L62.4921 82.0654C62.7933 82.1101 63.1047 82.1468 63.4426 82.1814L63.9453 82.2322L64.5558 82.2913V81.7662C64.8957 81.5321 65.2662 81.2859 65.6834 81.0172C67.3706 79.7024 68.5653 78.2696 69.821 76.0614L70.0388 75.6828C71.2742 73.4969 72.2267 71.2602 72.9167 69.5587L73.1263 69.0581L73.2952 68.6409C73.4357 68.4088 73.4519 68.3946 73.918 68.2399C74.4248 68.4109 74.4492 68.421 75.07 68.6958L75.7273 68.9807C76.0428 69.1232 76.3074 69.2474 76.5476 69.3654C76.1812 71.8911 74.7057 74.421 73.399 76.6557C73.2036 76.9894 73.0123 77.3192 72.8271 77.6428L72.5483 78.1312C71.6935 79.6047 70.6677 80.9215 69.6888 82.1447L69.4303 82.5151C68.6691 83.5959 67.7777 84.4283 66.929 85.163C66.4303 85.5884 66.4202 85.5985 65.9195 86.1542C63.6624 88.2362 60.231 89.3902 56.2724 89.3902C56.0363 89.3902 55.8023 89.3862 55.5702 89.378C51.9658 89.1582 48.8722 87.7824 46.6273 85.3991C42.6586 80.7811 42.1477 75.0844 41.9646 69.6442L41.9381 68.8607L41.413 69.8844C39.162 74.252 39.099 74.3741 38.4131 75.1475H37.9409L37.776 75.7724C37.0047 77.8015 35.6329 79.3422 34.1797 80.9745L34.1614 80.9948C33.9131 81.2757 33.6709 81.5626 33.4287 81.8496C32.348 83.1237 31.1065 84.1352 30.036 84.9574L29.5597 85.334C26.0713 87.9513 21.7017 89.3943 17.2587 89.3943L17.2567 89.3984Z" fill="white"/>
</svg>
